<?xml version="1.0" standalone="no"?>
<!DOCTYPE svg PUBLIC "-//W3C//DTD SVG 20010904//EN"
 "http://www.w3.org/TR/2001/REC-SVG-20010904/DTD/svg10.dtd">
<svg version="1.0" xmlns="http://www.w3.org/2000/svg"
 width="995.000000pt" height="995.000000pt" viewBox="0 0 995.000000 995.000000"
 preserveAspectRatio="xMidYMid meet">
<metadata>
Created by potrace 1.11, written by Peter Selinger 2001-2013
</metadata>
<g transform="translate(0.000000,995.000000) scale(0.100000,-0.100000)"
fill="#000000" stroke="none">
<path d="M1867 9882 l-67 -68 0 -380 0 -380 73 -72 72 -72 1233 0 1232 0 0
-3488 0 -3488 68 -67 68 -67 425 0 425 0 67 68 67 68 0 3487 0 3487 1232 0
1233 0 72 72 73 72 0 381 0 381 -68 67 -68 67 -3035 0 -3035 0 -67 -68z"/>
<path d="M1877 8112 l-67 -68 0 -3050 0 -3050 68 -67 68 -67 425 0 425 0 67
68 67 68 0 3055 0 3055 -63 62 -63 62 -430 0 -430 0 -67 -68z"/>
<path d="M7083 8088 l-62 -63 -4 -2940 c-3 -2654 -5 -2949 -20 -3030 -87 -487
-374 -831 -802 -964 -213 -66 -103 -63 -2283 -59 l-1973 3 -70 -71 -69 -72 0
-372 0 -373 72 -72 73 -72 2070 7 c2261 8 2136 5 2428 66 867 183 1448 787
1631 1694 58 288 56 158 56 3338 l0 2918 -63 62 -63 62 -430 0 -430 0 -61 -62z"/>
</g>
</svg>
